<?xml version="1.0" encoding="UTF-8" standalone="no"?>
<!DOCTYPE svg PUBLIC "-//W3C//DTD SVG 1.1//EN" "http://www.w3.org/Graphics/SVG/1.1/DTD/svg11.dtd">
<svg width="100%" height="100%" viewBox="0 0 280 160" version="1.1" xmlns="http://www.w3.org/2000/svg" xmlns:xlink="http://www.w3.org/1999/xlink" xml:space="preserve" xmlns:serif="http://www.serif.com/" style="fill-rule:evenodd;clip-rule:evenodd;stroke-linejoin:round;stroke-miterlimit:2;">
    <g transform="matrix(1,0,0,1,-3316.66,-956.479)">
        <g id="Artboard2" transform="matrix(0.284258,0,0,0.285006,2646.64,411.294)">
            <rect x="2357.06" y="1912.89" width="985.021" height="561.392" style="fill:none;"/>
            <g transform="matrix(3.51793,0,0,3.32788,785.16,-1569.69)">
                <path d="M482.824,1083.57C482.824,1076.59 488.201,1070.92 494.824,1070.92C501.447,1070.92 506.824,1076.59 506.824,1083.57L506.824,1151.05C506.824,1158.03 501.447,1163.7 494.824,1163.7C488.201,1163.7 482.824,1158.03 482.824,1151.05L482.824,1083.57ZM518.824,1083.57C518.824,1076.59 524.201,1070.92 530.824,1070.92C537.447,1070.92 542.824,1076.59 542.824,1083.57L542.824,1151.05C542.824,1158.03 537.447,1163.7 530.824,1163.7C524.201,1163.7 518.824,1158.03 518.824,1151.05L518.824,1083.57ZM631.736,1155.89C631.149,1154.4 630.824,1152.76 630.824,1151.05L630.824,1083.57C630.824,1076.59 636.201,1070.92 642.824,1070.92C649.447,1070.92 654.824,1076.59 654.824,1083.57L654.824,1120.5L666.824,1107.85L666.824,1083.57C666.824,1076.59 672.201,1070.92 678.824,1070.92C685.447,1070.92 690.824,1076.59 690.824,1083.57L690.824,1092.73C692.463,1093.34 694,1094.33 695.31,1095.71C699.993,1100.65 699.993,1108.66 695.31,1113.6L690.824,1118.33L690.824,1151.05C690.824,1158.03 685.447,1163.7 678.824,1163.7C672.201,1163.7 666.824,1158.03 666.824,1151.05L666.824,1143.64L651.31,1159.99C650.159,1161.21 648.833,1162.12 647.417,1162.74C646.002,1163.36 644.451,1163.7 642.824,1163.7C641.198,1163.7 639.646,1163.36 638.231,1162.74C636.815,1162.12 635.489,1161.21 634.339,1159.99C633.189,1158.78 632.321,1157.38 631.736,1155.89ZM622.824,1108.87L622.824,1125.74C622.824,1146.69 606.693,1163.7 586.824,1163.7C566.955,1163.7 550.824,1146.69 550.824,1125.74L550.824,1108.87C550.824,1087.93 566.955,1070.92 586.824,1070.92C606.693,1070.92 622.824,1087.93 622.824,1108.87ZM598.824,1108.87C598.824,1101.89 593.447,1096.22 586.824,1096.22C580.201,1096.22 574.824,1101.89 574.824,1108.87L574.824,1125.74C574.824,1132.73 580.201,1138.39 586.824,1138.39C593.447,1138.39 598.824,1132.73 598.824,1125.74L598.824,1108.87Z" style="fill:rgb(20,21,24);"/>
            </g>
            <g transform="matrix(3.2917,0,0,3.28306,661.056,-4559.2)">
                <path d="M556.354,2123.74L556.354,2104.3L561.058,2104.3C562.21,2104.3 563.094,2104.51 563.71,2104.93C564.326,2105.36 564.75,2105.93 564.982,2106.66C565.214,2107.39 565.33,2108.2 565.33,2109.1C565.33,2109.82 565.254,2110.51 565.102,2111.16C564.95,2111.82 564.67,2112.37 564.262,2112.83C563.854,2113.29 563.258,2113.58 562.474,2113.71L565.594,2123.74L564.298,2123.74L561.274,2113.95L557.65,2113.95L557.65,2123.74L556.354,2123.74ZM557.65,2112.94L561.01,2112.94C561.842,2112.94 562.474,2112.78 562.906,2112.47C563.338,2112.16 563.638,2111.71 563.806,2111.14C563.974,2110.56 564.058,2109.88 564.058,2109.1C564.058,2107.87 563.854,2106.93 563.446,2106.29C563.038,2105.65 562.218,2105.33 560.986,2105.33L557.65,2105.33L557.65,2112.94Z" style="fill:rgb(20,21,24);fill-rule:nonzero;"/>
                <path d="M568.522,2123.74L568.522,2104.3L575.242,2104.3L575.242,2105.35L569.842,2105.35L569.842,2113.15L574.282,2113.15L574.282,2114.16L569.842,2114.16L569.842,2122.71L575.314,2122.71L575.314,2123.74L568.522,2123.74Z" style="fill:rgb(20,21,24);fill-rule:nonzero;"/>
                <path d="M581.866,2123.98C580.842,2123.98 579.998,2123.77 579.334,2123.35C578.67,2122.94 578.166,2122.35 577.822,2121.6C577.478,2120.85 577.266,2119.96 577.186,2118.94L578.314,2118.58C578.426,2119.43 578.598,2120.18 578.83,2120.83C579.062,2121.49 579.418,2122 579.898,2122.36C580.378,2122.72 581.042,2122.9 581.89,2122.9C582.85,2122.9 583.606,2122.66 584.158,2122.18C584.71,2121.7 584.986,2120.9 584.986,2119.78C584.986,2118.93 584.766,2118.17 584.326,2117.49C583.886,2116.81 583.266,2116.07 582.466,2115.29L578.914,2111.76C578.322,2111.15 577.89,2110.55 577.618,2109.94C577.346,2109.33 577.21,2108.71 577.21,2108.07C577.21,2106.79 577.606,2105.8 578.398,2105.11C579.19,2104.43 580.218,2104.08 581.482,2104.08C582.138,2104.08 582.73,2104.17 583.258,2104.33C583.786,2104.5 584.246,2104.77 584.638,2105.15C585.03,2105.53 585.338,2106.03 585.562,2106.65C585.786,2107.27 585.93,2108.04 585.994,2108.95L584.89,2109.22C584.826,2108.31 584.674,2107.55 584.434,2106.94C584.194,2106.33 583.842,2105.88 583.378,2105.58C582.914,2105.29 582.29,2105.14 581.506,2105.14C580.626,2105.14 579.89,2105.36 579.298,2105.81C578.706,2106.26 578.41,2106.98 578.41,2107.97C578.41,2108.47 578.51,2108.95 578.71,2109.41C578.91,2109.87 579.282,2110.38 579.826,2110.92L583.33,2114.38C584.114,2115.15 584.79,2115.97 585.358,2116.84C585.926,2117.71 586.21,2118.67 586.21,2119.71C586.21,2120.68 586.026,2121.49 585.658,2122.12C585.29,2122.75 584.778,2123.22 584.122,2123.52C583.466,2123.83 582.714,2123.98 581.866,2123.98Z" style="fill:rgb(20,21,24);fill-rule:nonzero;"/>
                <path d="M588.802,2123.74L588.802,2104.3L595.522,2104.3L595.522,2105.35L590.122,2105.35L590.122,2113.15L594.562,2113.15L594.562,2114.16L590.122,2114.16L590.122,2122.71L595.594,2122.71L595.594,2123.74L588.802,2123.74Z" style="fill:rgb(20,21,24);fill-rule:nonzero;"/>
                <path d="M597.226,2123.74L601.306,2104.3L602.818,2104.3L606.922,2123.74L605.602,2123.74L604.594,2118.36L599.554,2118.36L598.522,2123.74L597.226,2123.74ZM599.746,2117.4L604.426,2117.4L602.074,2105.88L599.746,2117.4Z" style="fill:rgb(20,21,24);fill-rule:nonzero;"/>
                <path d="M609.49,2123.74L609.49,2104.3L614.194,2104.3C615.346,2104.3 616.23,2104.51 616.846,2104.93C617.462,2105.36 617.886,2105.93 618.118,2106.66C618.35,2107.39 618.466,2108.2 618.466,2109.1C618.466,2109.82 618.39,2110.51 618.238,2111.16C618.086,2111.82 617.806,2112.37 617.398,2112.83C616.99,2113.29 616.394,2113.58 615.61,2113.71L618.73,2123.74L617.434,2123.74L614.41,2113.95L610.786,2113.95L610.786,2123.74L609.49,2123.74ZM610.786,2112.94L614.146,2112.94C614.978,2112.94 615.61,2112.78 616.042,2112.47C616.474,2112.16 616.774,2111.71 616.942,2111.14C617.11,2110.56 617.194,2109.88 617.194,2109.1C617.194,2107.87 616.99,2106.93 616.582,2106.29C616.174,2105.65 615.354,2105.33 614.122,2105.33L610.786,2105.33L610.786,2112.94Z" style="fill:rgb(20,21,24);fill-rule:nonzero;"/>
                <path d="M626.002,2124C624.722,2124 623.742,2123.74 623.062,2123.21C622.382,2122.68 621.914,2121.97 621.658,2121.09C621.402,2120.2 621.274,2119.22 621.274,2118.15L621.274,2109.89C621.274,2108.77 621.41,2107.77 621.682,2106.9C621.954,2106.03 622.434,2105.34 623.122,2104.84C623.81,2104.33 624.77,2104.08 626.002,2104.08C627.138,2104.08 628.026,2104.31 628.666,2104.75C629.306,2105.2 629.762,2105.84 630.034,2106.66C630.306,2107.49 630.442,2108.45 630.442,2109.55L630.442,2110.54L629.194,2110.54L629.194,2109.55C629.194,2108.63 629.106,2107.84 628.93,2107.19C628.754,2106.54 628.434,2106.04 627.97,2105.69C627.506,2105.34 626.85,2105.16 626.002,2105.16C625.074,2105.16 624.362,2105.35 623.866,2105.74C623.37,2106.12 623.034,2106.66 622.858,2107.35C622.682,2108.03 622.594,2108.83 622.594,2109.75L622.594,2118.34C622.594,2119.3 622.69,2120.12 622.882,2120.8C623.074,2121.48 623.418,2122 623.914,2122.37C624.41,2122.74 625.106,2122.92 626.002,2122.92C626.866,2122.92 627.53,2122.74 627.994,2122.37C628.458,2122 628.774,2121.49 628.942,2120.82C629.11,2120.16 629.194,2119.39 629.194,2118.51L629.194,2117.33L630.442,2117.33L630.442,2118.29C630.442,2119.39 630.314,2120.38 630.058,2121.24C629.802,2122.11 629.354,2122.78 628.714,2123.27C628.074,2123.76 627.17,2124 626.002,2124Z" style="fill:rgb(20,21,24);fill-rule:nonzero;"/>
                <path d="M633.394,2123.74L633.394,2104.3L634.714,2104.3L634.714,2113.06L641.53,2113.06L641.53,2104.3L642.826,2104.3L642.826,2123.74L641.53,2123.74L641.53,2114.07L634.714,2114.07L634.714,2123.74L633.394,2123.74Z" style="fill:rgb(20,21,24);fill-rule:nonzero;"/>
                <path d="M655.162,2124C654.122,2124 653.258,2123.79 652.57,2123.38C651.882,2122.96 651.37,2122.41 651.034,2121.73C650.698,2121.05 650.53,2120.32 650.53,2119.54C650.53,2118.66 650.762,2117.76 651.226,2116.85C651.69,2115.94 652.546,2114.87 653.794,2113.66C653.25,2112.78 652.802,2112.03 652.45,2111.4C652.098,2110.78 651.838,2110.21 651.67,2109.69C651.502,2109.17 651.418,2108.63 651.418,2108.07C651.418,2107.2 651.586,2106.47 651.922,2105.88C652.258,2105.29 652.734,2104.84 653.35,2104.54C653.966,2104.23 654.69,2104.08 655.522,2104.08C656.338,2104.08 657.034,2104.22 657.61,2104.49C658.186,2104.76 658.63,2105.15 658.942,2105.65C659.254,2106.16 659.41,2106.76 659.41,2107.47C659.41,2108.12 659.234,2108.79 658.882,2109.46C658.53,2110.13 658.034,2110.83 657.394,2111.55C656.754,2112.27 655.986,2113.02 655.09,2113.8L659.314,2120.47C659.682,2120.03 660.002,2119.49 660.274,2118.85C660.546,2118.22 660.766,2117.59 660.934,2116.96C661.102,2116.33 661.186,2115.78 661.186,2115.31L662.362,2115.31C662.362,2115.86 662.27,2116.49 662.086,2117.21C661.902,2117.93 661.638,2118.65 661.294,2119.37C660.95,2120.09 660.53,2120.73 660.034,2121.29C660.482,2121.87 660.89,2122.25 661.258,2122.43C661.626,2122.61 662.018,2122.71 662.434,2122.71L662.434,2123.88C662.338,2123.88 662.246,2123.88 662.158,2123.87C662.07,2123.86 661.986,2123.85 661.906,2123.83C661.57,2123.79 661.246,2123.69 660.934,2123.53C660.622,2123.38 660.326,2123.18 660.046,2122.93C659.766,2122.69 659.506,2122.4 659.266,2122.08C658.818,2122.58 658.246,2123.02 657.55,2123.41C656.854,2123.81 656.058,2124 655.162,2124ZM655.162,2122.92C655.818,2122.92 656.418,2122.79 656.962,2122.53C657.506,2122.26 658.05,2121.84 658.594,2121.27L654.322,2114.57C653.362,2115.59 652.702,2116.49 652.342,2117.26C651.982,2118.03 651.802,2118.79 651.802,2119.56C651.802,2120.07 651.91,2120.59 652.126,2121.11C652.342,2121.63 652.694,2122.06 653.182,2122.41C653.67,2122.75 654.33,2122.92 655.162,2122.92ZM654.634,2113.01C655.258,2112.42 655.838,2111.82 656.374,2111.21C656.91,2110.6 657.342,2109.98 657.67,2109.34C657.998,2108.7 658.162,2108.06 658.162,2107.42C658.162,2106.68 657.918,2106.12 657.43,2105.74C656.942,2105.35 656.29,2105.16 655.474,2105.16C654.514,2105.16 653.806,2105.44 653.35,2106C652.894,2106.56 652.666,2107.24 652.666,2108.04C652.666,2108.78 652.826,2109.51 653.146,2110.24C653.466,2110.97 653.962,2111.89 654.634,2113.01Z" style="fill:rgb(20,21,24);fill-rule:nonzero;"/>
                <rect x="669.97" y="2104.3" width="1.296" height="19.44" style="fill:rgb(20,21,24);fill-rule:nonzero;"/>
                <path d="M674.89,2123.74L674.89,2104.3L675.922,2104.3L682.522,2120.71L682.522,2104.3L683.674,2104.3L683.674,2123.74L682.642,2123.74L676.042,2107.3L676.042,2123.74L674.89,2123.74Z" style="fill:rgb(20,21,24);fill-rule:nonzero;"/>
                <path d="M690.73,2123.74L686.026,2104.3L687.322,2104.3L691.354,2121.46L695.122,2104.3L696.394,2104.3L691.954,2123.74L690.73,2123.74Z" style="fill:rgb(20,21,24);fill-rule:nonzero;"/>
                <path d="M698.746,2123.74L698.746,2104.3L705.466,2104.3L705.466,2105.35L700.066,2105.35L700.066,2113.15L704.506,2113.15L704.506,2114.16L700.066,2114.16L700.066,2122.71L705.538,2122.71L705.538,2123.74L698.746,2123.74Z" style="fill:rgb(20,21,24);fill-rule:nonzero;"/>
                <path d="M712.09,2123.98C711.066,2123.98 710.222,2123.77 709.558,2123.35C708.894,2122.94 708.39,2122.35 708.046,2121.6C707.702,2120.85 707.49,2119.96 707.41,2118.94L708.538,2118.58C708.65,2119.43 708.822,2120.18 709.054,2120.83C709.286,2121.49 709.642,2122 710.122,2122.36C710.602,2122.72 711.266,2122.9 712.114,2122.9C713.074,2122.9 713.83,2122.66 714.382,2122.18C714.934,2121.7 715.21,2120.9 715.21,2119.78C715.21,2118.93 714.99,2118.17 714.55,2117.49C714.11,2116.81 713.49,2116.07 712.69,2115.29L709.138,2111.76C708.546,2111.15 708.114,2110.55 707.842,2109.94C707.57,2109.33 707.434,2108.71 707.434,2108.07C707.434,2106.79 707.83,2105.8 708.622,2105.11C709.414,2104.43 710.442,2104.08 711.706,2104.08C712.362,2104.08 712.954,2104.17 713.482,2104.33C714.01,2104.5 714.47,2104.77 714.862,2105.15C715.254,2105.53 715.562,2106.03 715.786,2106.65C716.01,2107.27 716.154,2108.04 716.218,2108.95L715.114,2109.22C715.05,2108.31 714.898,2107.55 714.658,2106.94C714.418,2106.33 714.066,2105.88 713.602,2105.58C713.138,2105.29 712.514,2105.14 711.73,2105.14C710.85,2105.14 710.114,2105.36 709.522,2105.81C708.93,2106.26 708.634,2106.98 708.634,2107.97C708.634,2108.47 708.734,2108.95 708.934,2109.41C709.134,2109.87 709.506,2110.38 710.05,2110.92L713.554,2114.38C714.338,2115.15 715.014,2115.97 715.582,2116.84C716.15,2117.71 716.434,2118.67 716.434,2119.71C716.434,2120.68 716.25,2121.49 715.882,2122.12C715.514,2122.75 715.002,2123.22 714.346,2123.52C713.69,2123.83 712.938,2123.98 712.09,2123.98Z" style="fill:rgb(20,21,24);fill-rule:nonzero;"/>
                <path d="M721.618,2123.74L721.618,2105.35L717.73,2105.35L717.73,2104.3L726.706,2104.3L726.706,2105.35L722.914,2105.35L722.914,2123.74L721.618,2123.74Z" style="fill:rgb(20,21,24);fill-rule:nonzero;"/>
                <path d="M728.506,2123.74L729.082,2104.3L730.378,2104.3L734.482,2121.84L738.658,2104.3L740.002,2104.3L740.554,2123.74L739.426,2123.74L738.946,2107.44L734.986,2123.74L734.026,2123.74L730.114,2107.47L729.634,2123.74L728.506,2123.74Z" style="fill:rgb(20,21,24);fill-rule:nonzero;"/>
                <path d="M743.89,2123.74L743.89,2104.3L750.61,2104.3L750.61,2105.35L745.21,2105.35L745.21,2113.15L749.65,2113.15L749.65,2114.16L745.21,2114.16L745.21,2122.71L750.682,2122.71L750.682,2123.74L743.89,2123.74Z" style="fill:rgb(20,21,24);fill-rule:nonzero;"/>
                <path d="M753.346,2123.74L753.346,2104.3L754.378,2104.3L760.978,2120.71L760.978,2104.3L762.13,2104.3L762.13,2123.74L761.098,2123.74L754.498,2107.3L754.498,2123.74L753.346,2123.74Z" style="fill:rgb(20,21,24);fill-rule:nonzero;"/>
                <path d="M768.274,2123.74L768.274,2105.35L764.386,2105.35L764.386,2104.3L773.362,2104.3L773.362,2105.35L769.57,2105.35L769.57,2123.74L768.274,2123.74Z" style="fill:rgb(20,21,24);fill-rule:nonzero;"/>
            </g>
        </g>
    </g>
</svg>
